# xmcd
#
# Track frame offsets:
# 182
# 24257
# 45782
# 68357
# 89807
# 110207
# 133532
# 149057
# 163757
# 185207
# 204257
# 220307
# 249182
#
# Disc length: 3582 seconds
#
#
# Revision: 0
# Processed by: cddbd v1.5PL3 Copyright (c) Steve Scherf et al.
# Submitted via: FreeRIP 2.70 
#
DISCID=bb0dfc0d
DTITLE=Doc Span, Stephanie Jeane and Ross Williams - Blues Appetite
DYEAR=1994
DGENRE=Blues
TTITLE0=Mean Mistreater
TTITLE1=Turtle Blues
TTITLE2=Reap What You Sow
TTITLE3=Jump For Joy
TTITLE4=Queen Bee
TTITLE5=Even My Ups Are Downs
TTITLE6=Look What You Done To Me Baby
TTITLE7=I Don't Care
TTITLE8=Fishin' Blues
TTITLE9=Dirty Dealer
TTITLE10=You Can Have My Husband
TTITLE11=It's A Man's World
TTITLE12=Stop Messin' Around
EXTD=
EXTT0=
EXTT1=
EXTT2=
EXTT3=
EXTT4=
EXTT5=
EXTT6=
EXTT7=
EXTT8=
EXTT9=
EXTT10=
EXTT11=
EXTT12=
PLAYORDER=
